<svg xmlns="http://www.w3.org/2000/svg" width="560.735" height="801.725" viewBox="0 0 560.735 801.725">
  <g id="mega-iconB" transform="translate(-328.079 -213.563)">
    <g id="Grupo_548" data-name="Grupo 548" transform="translate(328.079 216.419)">
      <g id="Grupo_547" data-name="Grupo 547">
        <path id="Trazado_9" data-name="Trazado 9" d="M710.488,484.579q59.529,36.646,93.618,101.259Q838.2,650.482,838.2,729.845t-36.633,144A267.613,267.613,0,0,1,700.3,975.61q-64.63,37.169-142.989,37.142-78.368,0-141.953-37.142-63.613-37.142-100.75-101.768-37.156-64.617-37.151-144V265.78q0-23.391,14.764-37.651,14.728-14.233,37.142-14.246,23.391,0,37.651,14.246t14.246,37.651V540.555a249.471,249.471,0,0,1,86.5-68.187q50.879-24.422,109.908-24.422Q650.942,447.946,710.488,484.579Zm-61.064,411.65q41.212-24.917,65.135-68.687,23.886-43.743,23.9-97.7,0-53.932-23.9-97.189-23.927-43.248-65.135-68.187-41.212-24.917-92.109-24.931-50.88,0-92.092,24.931t-64.617,68.187q-23.431,43.261-23.414,97.189,0,53.946,23.414,97.7Q424,871.3,465.223,896.229t92.092,24.94Q608.194,921.169,649.424,896.229Z" transform="translate(-277.46 -213.883)" fill="#ffe610"/>
      </g>
    </g>
    <g id="Grupo_549" data-name="Grupo 549" transform="translate(723.126 213.563)">
      <path id="Trazado_10" data-name="Trazado 10" d="M374.944,335.888a13.184,13.184,0,0,1-3.874-9.738V290.4h-35.75a13.01,13.01,0,0,1-9.738-4,13.644,13.644,0,0,1-3.865-9.872,13.216,13.216,0,0,1,13.6-13.6h35.75V227.167a12.85,12.85,0,0,1,4.142-9.6,13.412,13.412,0,0,1,23.075,9.6v35.758h35.749a13.532,13.532,0,0,1,9.738,4,13.181,13.181,0,0,1,4.133,9.872,12.892,12.892,0,0,1-4.133,9.6,13.569,13.569,0,0,1-9.738,4H398.286v35.749a13.768,13.768,0,0,1-23.342,9.738Z" transform="translate(-321.717 -213.563)"/>
    </g>
  </g>
</svg>
